{
    "asset" : {
        "generator" : "Khronos glTF Blender I/O v1.5.17",
        "version" : "2.0"
    },
    "scene" : 0,
    "scenes" : [
        {
            "name" : "Scene",
            "nodes" : [
                3
            ]
        }
    ],
    "nodes" : [
        {
            "mesh" : 0,
            "name" : "Mesh_7.001",
            "translation" : [
                -0.3506337106227875,
                37.50407791137695,
                -0.31874293088912964
            ]
        },
        {
            "children" : [
                0
            ],
            "name" : "RTFKTSNEAKER.obj.cleaner.materialmerger.gles"
        },
        {
            "children" : [
                1
            ],
            "name" : "RootNode (model correction matrix)",
            "scale" : [
                0.011363636702299118,
                0.011363636702299118,
                0.011363636702299118
            ]
        },
        {
            "children" : [
                2
            ],
            "name" : "RootNode (gltf orientation matrix)",
            "rotation" : [
                -0.7071068286895752,
                0,
                0,
                0.7071068286895752
            ],
            "scale" : [
                14.260172843933105,
                14.260172843933105,
                14.260172843933105
            ]
        }
    ],
    "materials" : [
        {
            "alphaMode" : "BLEND",
            "doubleSided" : true,
            "emissiveFactor" : [
                1,
                1,
                1
            ],
            "emissiveTexture" : {
                "index" : 0
            },
            "name" : "blinn1SG.001",
            "pbrMetallicRoughness" : {
                "baseColorFactor" : [
                    1,
                    1,
                    1,
                    0.8999999761581421
                ],
                "baseColorTexture" : {
                    "index" : 1
                },
                "metallicRoughnessTexture" : {
                    "index" : 2
                }
            }
        }
    ],
    "meshes" : [
        {
            "name" : "Mesh_7.001",
            "primitives" : [
                {
                    "attributes" : {
                        "POSITION" : 0,
                        "NORMAL" : 1,
                        "TEXCOORD_0" : 2
                    },
                    "indices" : 3,
                    "material" : 0
                }
            ]
        }
    ],
    "textures" : [
        {
            "sampler" : 0,
            "source" : 0
        },
        {
            "sampler" : 0,
            "source" : 1
        },
        {
            "sampler" : 0,
            "source" : 2
        }
    ],
    "images" : [
        {
            "bufferView" : 4,
            "mimeType" : "image/png",
            "name" : "blinn1SG_emissive"
        },
        {
            "bufferView" : 5,
            "mimeType" : "image/png",
            "name" : "blinn1SG_baseColor"
        },
        {
            "bufferView" : 6,
            "mimeType" : "image/png",
            "name" : "blinn1SG_metallicRoughness"
        }
    ],
    "accessors" : [
        {
            "bufferView" : 0,
            "componentType" : 5126,
            "count" : 5381,
            "max" : [
                15.119452476501465,
                4.966094017028809,
                7.527651786804199
            ],
            "min" : [
                -14.530988693237305,
                -5.975924015045166,
                1.5170259475708008
            ],
            "type" : "VEC3"
        },
        {
            "bufferView" : 1,
            "componentType" : 5126,
            "count" : 5381,
            "type" : "VEC3"
        },
        {
            "bufferView" : 2,
            "componentType" : 5126,
            "count" : 5381,
            "type" : "VEC2"
        },
        {
            "bufferView" : 3,
            "componentType" : 5123,
            "count" : 30624,
            "type" : "SCALAR"
        }
    ],
    "bufferViews" : [
        {
            "buffer" : 0,
            "byteLength" : 64572,
            "byteOffset" : 0
        },
        {
            "buffer" : 0,
            "byteLength" : 64572,
            "byteOffset" : 64572
        },
        {
            "buffer" : 0,
            "byteLength" : 43048,
            "byteOffset" : 129144
        },
        {
            "buffer" : 0,
            "byteLength" : 61248,
            "byteOffset" : 172192
        },
        {
            "buffer" : 0,
            "byteLength" : 673037,
            "byteOffset" : 233440
        },
        {
            "buffer" : 0,
            "byteLength" : 705451,
            "byteOffset" : 906480
        },
        {
            "buffer" : 0,
            "byteLength" : 1280765,
            "byteOffset" : 1611932
        }
    ],
    "samplers" : [
        {
            "magFilter" : 9729,
            "minFilter" : 9987
        }
    ],
    "buffers" : [
        {
            "byteLength" : 2892700,
            "uri" : "data:application/octet-stream;base64,"
        }
    ]
}
