{
    "asset" : {
        "generator" : "Khronos glTF Blender I/O v1.5.17",
        "version" : "2.0"
    },
    "scene" : 0,
    "scenes" : [
        {
            "name" : "Scene",
            "nodes" : [
                3
            ]
        }
    ],
    "nodes" : [
        {
            "mesh" : 0,
            "name" : "Mesh_6.001",
            "translation" : [
                -16.281591415405273,
                67.12287902832031,
                27.699594497680664
            ]
        },
        {
            "children" : [
                0
            ],
            "name" : "RTFKTSNEAKER.obj.cleaner.materialmerger.gles"
        },
        {
            "children" : [
                1
            ],
            "name" : "RootNode (model correction matrix)",
            "scale" : [
                0.011363636702299118,
                0.011363636702299118,
                0.011363636702299118
            ]
        },
        {
            "children" : [
                2
            ],
            "name" : "RootNode (gltf orientation matrix)",
            "rotation" : [
                -0.7071068286895752,
                0,
                0,
                0.7071068286895752
            ],
            "scale" : [
                14.260172843933105,
                14.260172843933105,
                14.260172843933105
            ]
        }
    ],
    "materials" : [
        {
            "alphaMode" : "BLEND",
            "doubleSided" : true,
            "emissiveFactor" : [
                1,
                1,
                1
            ],
            "emissiveTexture" : {
                "index" : 0
            },
            "name" : "blinn1SG.001",
            "pbrMetallicRoughness" : {
                "baseColorFactor" : [
                    1,
                    1,
                    1,
                    0.8999999761581421
                ],
                "baseColorTexture" : {
                    "index" : 1
                },
                "metallicRoughnessTexture" : {
                    "index" : 2
                }
            }
        }
    ],
    "meshes" : [
        {
            "name" : "Mesh_6.001",
            "primitives" : [
                {
                    "attributes" : {
                        "POSITION" : 0,
                        "NORMAL" : 1,
                        "TEXCOORD_0" : 2
                    },
                    "indices" : 3,
                    "material" : 0
                }
            ]
        }
    ],
    "textures" : [
        {
            "sampler" : 0,
            "source" : 0
        },
        {
            "sampler" : 0,
            "source" : 1
        },
        {
            "sampler" : 0,
            "source" : 2
        }
    ],
    "images" : [
        {
            "bufferView" : 4,
            "mimeType" : "image/png",
            "name" : "blinn1SG_emissive"
        },
        {
            "bufferView" : 5,
            "mimeType" : "image/png",
            "name" : "blinn1SG_baseColor"
        },
        {
            "bufferView" : 6,
            "mimeType" : "image/png",
            "name" : "blinn1SG_metallicRoughness"
        }
    ],
    "accessors" : [
        {
            "bufferView" : 0,
            "componentType" : 5126,
            "count" : 9925,
            "max" : [
                15.861471176147461,
                5.520135879516602,
                7.097607135772705
            ],
            "min" : [
                -15.071817398071289,
                -6.500010967254639,
                -0.6860120296478271
            ],
            "type" : "VEC3"
        },
        {
            "bufferView" : 1,
            "componentType" : 5126,
            "count" : 9925,
            "type" : "VEC3"
        },
        {
            "bufferView" : 2,
            "componentType" : 5126,
            "count" : 9925,
            "type" : "VEC2"
        },
        {
            "bufferView" : 3,
            "componentType" : 5123,
            "count" : 58200,
            "type" : "SCALAR"
        }
    ],
    "bufferViews" : [
        {
            "buffer" : 0,
            "byteLength" : 119100,
            "byteOffset" : 0
        },
        {
            "buffer" : 0,
            "byteLength" : 119100,
            "byteOffset" : 119100
        },
        {
            "buffer" : 0,
            "byteLength" : 79400,
            "byteOffset" : 238200
        },
        {
            "buffer" : 0,
            "byteLength" : 116400,
            "byteOffset" : 317600
        },
        {
            "buffer" : 0,
            "byteLength" : 673037,
            "byteOffset" : 434000
        },
        {
            "buffer" : 0,
            "byteLength" : 705451,
            "byteOffset" : 1107040
        },
        {
            "buffer" : 0,
            "byteLength" : 1280765,
            "byteOffset" : 1812492
        }
    ],
    "samplers" : [
        {
            "magFilter" : 9729,
            "minFilter" : 9987
        }
    ],
    "buffers" : [
        {
            "byteLength" : 3093260,
            "uri" : "data:application/octet-stream;base64,"
        }
    ]
}
