{
    "asset" : {
        "generator" : "Khronos glTF Blender I/O v1.5.17",
        "version" : "2.0"
    },
    "scene" : 0,
    "scenes" : [
        {
            "name" : "Scene",
            "nodes" : [
                4
            ]
        }
    ],
    "nodes" : [
        {
            "mesh" : 0,
            "name" : "Mesh_3.001",
            "translation" : [
                -12.00822639465332,
                83.11136627197266,
                23.24300765991211
            ]
        },
        {
            "mesh" : 1,
            "name" : "Mesh_4.001",
            "translation" : [
                -12.00822639465332,
                83.11136627197266,
                23.24300765991211
            ]
        },
        {
            "children" : [
                0,
                1
            ],
            "name" : "RTFKTSNEAKER.obj.cleaner.materialmerger.gles"
        },
        {
            "children" : [
                2
            ],
            "name" : "RootNode (model correction matrix)",
            "scale" : [
                0.011363636702299118,
                0.011363636702299118,
                0.011363636702299118
            ]
        },
        {
            "children" : [
                3
            ],
            "name" : "RootNode (gltf orientation matrix)",
            "rotation" : [
                -0.7071068286895752,
                0,
                0,
                0.7071068286895752
            ],
            "scale" : [
                14.260172843933105,
                14.260172843933105,
                14.260172843933105
            ],
            "translation" : [
                -0.002415727823972702,
                -0.14077556133270264,
                -0.1140889972448349
            ]
        }
    ],
    "materials" : [
        {
            "doubleSided" : true,
            "emissiveFactor" : [
                1,
                1,
                1
            ],
            "emissiveTexture" : {
                "index" : 0
            },
            "name" : "bladeblinn31SG.001",
            "pbrMetallicRoughness" : {
                "baseColorTexture" : {
                    "index" : 1
                },
                "metallicRoughnessTexture" : {
                    "index" : 2
                }
            }
        }
    ],
    "meshes" : [
        {
            "name" : "Mesh_3.001",
            "primitives" : [
                {
                    "attributes" : {
                        "POSITION" : 0,
                        "NORMAL" : 1,
                        "TEXCOORD_0" : 2
                    },
                    "indices" : 3,
                    "material" : 0
                }
            ]
        },
        {
            "name" : "Mesh_4.001",
            "primitives" : [
                {
                    "attributes" : {
                        "POSITION" : 4,
                        "NORMAL" : 5,
                        "TEXCOORD_0" : 6
                    },
                    "indices" : 7,
                    "material" : 0
                }
            ]
        }
    ],
    "textures" : [
        {
            "sampler" : 0,
            "source" : 0
        },
        {
            "sampler" : 0,
            "source" : 1
        },
        {
            "sampler" : 0,
            "source" : 2
        }
    ],
    "images" : [
        {
            "bufferView" : 4,
            "mimeType" : "image/png",
            "name" : "bladeblinn31SG_emissive"
        },
        {
            "bufferView" : 5,
            "mimeType" : "image/png",
            "name" : "bladeblinn31SG_baseColor"
        },
        {
            "bufferView" : 6,
            "mimeType" : "image/png",
            "name" : "bladeblinn31SG_metallicRoughness"
        }
    ],
    "accessors" : [
        {
            "bufferView" : 0,
            "componentType" : 5126,
            "count" : 10246,
            "max" : [
                0.5120620131492615,
                -2.3857638835906982,
                9.85543155670166
            ],
            "min" : [
                -12.993356704711914,
                -5.4979400634765625,
                5.020410060882568
            ],
            "type" : "VEC3"
        },
        {
            "bufferView" : 1,
            "componentType" : 5126,
            "count" : 10246,
            "type" : "VEC3"
        },
        {
            "bufferView" : 2,
            "componentType" : 5126,
            "count" : 10246,
            "type" : "VEC2"
        },
        {
            "bufferView" : 3,
            "componentType" : 5123,
            "count" : 59760,
            "type" : "SCALAR"
        },
        {
            "bufferView" : 7,
            "componentType" : 5126,
            "count" : 10249,
            "max" : [
                0.15557199716567993,
                3.6122560501098633,
                9.879411697387695
            ],
            "min" : [
                -13.24070930480957,
                0.015460999682545662,
                4.819293022155762
            ],
            "type" : "VEC3"
        },
        {
            "bufferView" : 8,
            "componentType" : 5126,
            "count" : 10249,
            "type" : "VEC3"
        },
        {
            "bufferView" : 9,
            "componentType" : 5126,
            "count" : 10249,
            "type" : "VEC2"
        },
        {
            "bufferView" : 10,
            "componentType" : 5123,
            "count" : 59760,
            "type" : "SCALAR"
        }
    ],
    "bufferViews" : [
        {
            "buffer" : 0,
            "byteLength" : 122952,
            "byteOffset" : 0
        },
        {
            "buffer" : 0,
            "byteLength" : 122952,
            "byteOffset" : 122952
        },
        {
            "buffer" : 0,
            "byteLength" : 81968,
            "byteOffset" : 245904
        },
        {
            "buffer" : 0,
            "byteLength" : 119520,
            "byteOffset" : 327872
        },
        {
            "buffer" : 0,
            "byteLength" : 984998,
            "byteOffset" : 447392
        },
        {
            "buffer" : 0,
            "byteLength" : 369336,
            "byteOffset" : 1432392
        },
        {
            "buffer" : 0,
            "byteLength" : 2152,
            "byteOffset" : 1801728
        },
        {
            "buffer" : 0,
            "byteLength" : 122988,
            "byteOffset" : 1803880
        },
        {
            "buffer" : 0,
            "byteLength" : 122988,
            "byteOffset" : 1926868
        },
        {
            "buffer" : 0,
            "byteLength" : 81992,
            "byteOffset" : 2049856
        },
        {
            "buffer" : 0,
            "byteLength" : 119520,
            "byteOffset" : 2131848
        }
    ],
    "samplers" : [
        {
            "magFilter" : 9729,
            "minFilter" : 9987
        }
    ],
    "buffers" : [
        {
            "byteLength" : 2251368,
            "uri" : "data:application/octet-stream;base64,"
        }
    ]
}
