{
    "asset" : {
        "generator" : "Khronos glTF Blender I/O v1.5.17",
        "version" : "2.0"
    },
    "scene" : 0,
    "scenes" : [
        {
            "name" : "Scene",
            "nodes" : [
                0,
                1,
                2,
                3,
                4,
                5,
                6,
                7,
                8
            ]
        }
    ],
    "nodes" : [
        {
            "name" : "Light",
            "rotation" : [
                0.16907575726509094,
                0.7558803558349609,
                -0.27217137813568115,
                0.570947527885437
            ],
            "translation" : [
                4.076245307922363,
                5.903861999511719,
                -1.0054539442062378
            ]
        },
        {
            "name" : "Camera",
            "rotation" : [
                0.483536034822464,
                0.33687159419059753,
                -0.20870360732078552,
                0.7804827094078064
            ],
            "translation" : [
                7.358891487121582,
                4.958309173583984,
                6.925790786743164
            ]
        },
        {
            "mesh" : 0,
            "name" : "Blanko_Master_Head_Square",
            "rotation" : [
                0.7071068286895752,
                0,
                0,
                0.7071067094802856
            ],
            "scale" : [
                0.009999999776482582,
                0.009999999776482582,
                0.009999999776482582
            ]
        },
        {
            "mesh" : 1,
            "name" : "Blanko_Master_Torso",
            "rotation" : [
                0.7071068286895752,
                0,
                0,
                0.7071067094802856
            ],
            "scale" : [
                0.009999999776482582,
                0.009999999776482582,
                0.009999999776482582
            ]
        },
        {
            "mesh" : 2,
            "name" : "Blanko_Master_L_Foot",
            "rotation" : [
                0.7071068286895752,
                0,
                0,
                0.7071067094802856
            ],
            "scale" : [
                0.009999999776482582,
                0.009999999776482582,
                0.009999999776482582
            ]
        },
        {
            "mesh" : 3,
            "name" : "Blanko_Master_R_Foot",
            "rotation" : [
                0.7071068286895752,
                0,
                0,
                0.7071067094802856
            ],
            "scale" : [
                0.009999999776482582,
                0.009999999776482582,
                0.009999999776482582
            ]
        },
        {
            "mesh" : 4,
            "name" : "Blanko_Master_R_Arm",
            "rotation" : [
                0.7071068286895752,
                0,
                0,
                0.7071067094802856
            ],
            "scale" : [
                0.009999999776482582,
                0.009999999776482582,
                0.009999999776482582
            ]
        },
        {
            "mesh" : 5,
            "name" : "Blanko_Master_Legs",
            "rotation" : [
                0.7071068286895752,
                0,
                0,
                0.7071067094802856
            ],
            "scale" : [
                0.009999999776482582,
                0.009999999776482582,
                0.009999999776482582
            ]
        },
        {
            "mesh" : 6,
            "name" : "Blanko_Master_L_Arm",
            "rotation" : [
                0.7071068286895752,
                0,
                0,
                0.7071067094802856
            ],
            "scale" : [
                0.009999999776482582,
                0.009999999776482582,
                0.009999999776482582
            ]
        }
    ],
    "materials" : [
        {
            "doubleSided" : true,
            "name" : "head_square",
            "pbrMetallicRoughness" : {
                "baseColorFactor" : [
                    0.5,
                    0.5,
                    0.5,
                    1
                ],
                "metallicFactor" : 0.5,
                "roughnessFactor" : 0.5527864098548889
            }
        },
        {
            "doubleSided" : true,
            "name" : "torso",
            "pbrMetallicRoughness" : {
                "baseColorFactor" : [
                    0.5,
                    0.5,
                    0.5,
                    1
                ],
                "metallicFactor" : 0.5,
                "roughnessFactor" : 0.5527864098548889
            }
        },
        {
            "doubleSided" : true,
            "name" : "left_foot",
            "pbrMetallicRoughness" : {
                "baseColorFactor" : [
                    0.5,
                    0.5,
                    0.5,
                    1
                ],
                "metallicFactor" : 0.5,
                "roughnessFactor" : 0.5527864098548889
            }
        },
        {
            "doubleSided" : true,
            "name" : "right_foot",
            "pbrMetallicRoughness" : {
                "baseColorFactor" : [
                    0.5,
                    0.5,
                    0.5,
                    1
                ],
                "metallicFactor" : 0.5,
                "roughnessFactor" : 0.5527864098548889
            }
        },
        {
            "doubleSided" : true,
            "name" : "right_arm",
            "pbrMetallicRoughness" : {
                "baseColorFactor" : [
                    0.5,
                    0.5,
                    0.5,
                    1
                ],
                "metallicFactor" : 0.5,
                "roughnessFactor" : 0.5527864098548889
            }
        },
        {
            "doubleSided" : true,
            "name" : "legs",
            "pbrMetallicRoughness" : {
                "baseColorFactor" : [
                    0.5,
                    0.5,
                    0.5,
                    1
                ],
                "metallicFactor" : 0.5,
                "roughnessFactor" : 0.5527864098548889
            }
        },
        {
            "doubleSided" : true,
            "name" : "left_arm",
            "pbrMetallicRoughness" : {
                "baseColorFactor" : [
                    0.5,
                    0.5,
                    0.5,
                    1
                ],
                "metallicFactor" : 0.5,
                "roughnessFactor" : 0.5527864098548889
            }
        }
    ],
    "meshes" : [
        {
            "name" : "Mesh",
            "primitives" : [
                {
                    "attributes" : {
                        "POSITION" : 0,
                        "NORMAL" : 1,
                        "TEXCOORD_0" : 2
                    },
                    "indices" : 3,
                    "material" : 0
                }
            ]
        },
        {
            "name" : "Mesh.001",
            "primitives" : [
                {
                    "attributes" : {
                        "POSITION" : 4,
                        "NORMAL" : 5,
                        "TEXCOORD_0" : 6,
                        "COLOR_0" : 7
                    },
                    "indices" : 8,
                    "material" : 1
                }
            ]
        },
        {
            "name" : "Mesh.002",
            "primitives" : [
                {
                    "attributes" : {
                        "POSITION" : 9,
                        "NORMAL" : 10,
                        "TEXCOORD_0" : 11
                    },
                    "indices" : 12,
                    "material" : 2
                }
            ]
        },
        {
            "name" : "Mesh.003",
            "primitives" : [
                {
                    "attributes" : {
                        "POSITION" : 13,
                        "NORMAL" : 14,
                        "TEXCOORD_0" : 15
                    },
                    "indices" : 16,
                    "material" : 3
                }
            ]
        },
        {
            "name" : "Mesh.004",
            "primitives" : [
                {
                    "attributes" : {
                        "POSITION" : 17,
                        "NORMAL" : 18,
                        "TEXCOORD_0" : 19
                    },
                    "indices" : 20,
                    "material" : 4
                }
            ]
        },
        {
            "name" : "Mesh.005",
            "primitives" : [
                {
                    "attributes" : {
                        "POSITION" : 21,
                        "NORMAL" : 22,
                        "TEXCOORD_0" : 23
                    },
                    "indices" : 24,
                    "material" : 5
                }
            ]
        },
        {
            "name" : "Mesh.006",
            "primitives" : [
                {
                    "attributes" : {
                        "POSITION" : 25,
                        "NORMAL" : 26,
                        "TEXCOORD_0" : 27
                    },
                    "indices" : 28,
                    "material" : 6
                }
            ]
        }
    ],
    "accessors" : [
        {
            "bufferView" : 0,
            "componentType" : 5126,
            "count" : 679,
            "max" : [
                36.889862060546875,
                37.25362777709961,
                -86.31107330322266
            ],
            "min" : [
                -36.889564514160156,
                -39.05980682373047,
                -158.3442840576172
            ],
            "type" : "VEC3"
        },
        {
            "bufferView" : 1,
            "componentType" : 5126,
            "count" : 679,
            "type" : "VEC3"
        },
        {
            "bufferView" : 2,
            "componentType" : 5126,
            "count" : 679,
            "type" : "VEC2"
        },
        {
            "bufferView" : 3,
            "componentType" : 5123,
            "count" : 3600,
            "type" : "SCALAR"
        },
        {
            "bufferView" : 4,
            "componentType" : 5126,
            "count" : 1608,
            "max" : [
                28.13223648071289,
                27.08671760559082,
                -38.97584915161133
            ],
            "min" : [
                -28.13223648071289,
                -19.08397102355957,
                -89.85831451416016
            ],
            "type" : "VEC3"
        },
        {
            "bufferView" : 5,
            "componentType" : 5126,
            "count" : 1608,
            "type" : "VEC3"
        },
        {
            "bufferView" : 6,
            "componentType" : 5126,
            "count" : 1608,
            "type" : "VEC2"
        },
        {
            "bufferView" : 7,
            "componentType" : 5123,
            "count" : 1608,
            "normalized" : true,
            "type" : "VEC4"
        },
        {
            "bufferView" : 8,
            "componentType" : 5123,
            "count" : 8106,
            "type" : "SCALAR"
        },
        {
            "bufferView" : 9,
            "componentType" : 5126,
            "count" : 518,
            "max" : [
                -4.220340251922607,
                33.88654708862305,
                0.04079015552997589
            ],
            "min" : [
                -30.47124671936035,
                -11.47038745880127,
                -21.740232467651367
            ],
            "type" : "VEC3"
        },
        {
            "bufferView" : 10,
            "componentType" : 5126,
            "count" : 518,
            "type" : "VEC3"
        },
        {
            "bufferView" : 11,
            "componentType" : 5126,
            "count" : 518,
            "type" : "VEC2"
        },
        {
            "bufferView" : 12,
            "componentType" : 5123,
            "count" : 2760,
            "type" : "SCALAR"
        },
        {
            "bufferView" : 13,
            "componentType" : 5126,
            "count" : 518,
            "max" : [
                30.47124671936035,
                33.88654708862305,
                0.04079015552997589
            ],
            "min" : [
                4.220341205596924,
                -11.47038745880127,
                -21.740232467651367
            ],
            "type" : "VEC3"
        },
        {
            "bufferView" : 14,
            "componentType" : 5126,
            "count" : 518,
            "type" : "VEC3"
        },
        {
            "bufferView" : 15,
            "componentType" : 5126,
            "count" : 518,
            "type" : "VEC2"
        },
        {
            "bufferView" : 16,
            "componentType" : 5123,
            "count" : 2760,
            "type" : "SCALAR"
        },
        {
            "bufferView" : 17,
            "componentType" : 5126,
            "count" : 1457,
            "max" : [
                -19.46318244934082,
                15.126487731933594,
                -43.84620666503906
            ],
            "min" : [
                -80.77218627929688,
                -10.439787864685059,
                -86.65924835205078
            ],
            "type" : "VEC3"
        },
        {
            "bufferView" : 18,
            "componentType" : 5126,
            "count" : 1457,
            "type" : "VEC3"
        },
        {
            "bufferView" : 19,
            "componentType" : 5126,
            "count" : 1457,
            "type" : "VEC2"
        },
        {
            "bufferView" : 20,
            "componentType" : 5123,
            "count" : 7560,
            "type" : "SCALAR"
        },
        {
            "bufferView" : 21,
            "componentType" : 5126,
            "count" : 736,
            "max" : [
                25.75348663330078,
                25.021472930908203,
                -21.156787872314453
            ],
            "min" : [
                -25.75348663330078,
                -15.872925758361816,
                -41.62480545043945
            ],
            "type" : "VEC3"
        },
        {
            "bufferView" : 22,
            "componentType" : 5126,
            "count" : 736,
            "type" : "VEC3"
        },
        {
            "bufferView" : 23,
            "componentType" : 5126,
            "count" : 736,
            "type" : "VEC2"
        },
        {
            "bufferView" : 24,
            "componentType" : 5123,
            "count" : 3696,
            "type" : "SCALAR"
        },
        {
            "bufferView" : 25,
            "componentType" : 5126,
            "count" : 1457,
            "max" : [
                80.78279876708984,
                15.126275062561035,
                -43.84161376953125
            ],
            "min" : [
                19.46318244934082,
                -10.440011024475098,
                -86.65924835205078
            ],
            "type" : "VEC3"
        },
        {
            "bufferView" : 26,
            "componentType" : 5126,
            "count" : 1457,
            "type" : "VEC3"
        },
        {
            "bufferView" : 27,
            "componentType" : 5126,
            "count" : 1457,
            "type" : "VEC2"
        },
        {
            "bufferView" : 28,
            "componentType" : 5123,
            "count" : 7560,
            "type" : "SCALAR"
        }
    ],
    "bufferViews" : [
        {
            "buffer" : 0,
            "byteLength" : 8148,
            "byteOffset" : 0
        },
        {
            "buffer" : 0,
            "byteLength" : 8148,
            "byteOffset" : 8148
        },
        {
            "buffer" : 0,
            "byteLength" : 5432,
            "byteOffset" : 16296
        },
        {
            "buffer" : 0,
            "byteLength" : 7200,
            "byteOffset" : 21728
        },
        {
            "buffer" : 0,
            "byteLength" : 19296,
            "byteOffset" : 28928
        },
        {
            "buffer" : 0,
            "byteLength" : 19296,
            "byteOffset" : 48224
        },
        {
            "buffer" : 0,
            "byteLength" : 12864,
            "byteOffset" : 67520
        },
        {
            "buffer" : 0,
            "byteLength" : 12864,
            "byteOffset" : 80384
        },
        {
            "buffer" : 0,
            "byteLength" : 16212,
            "byteOffset" : 93248
        },
        {
            "buffer" : 0,
            "byteLength" : 6216,
            "byteOffset" : 109460
        },
        {
            "buffer" : 0,
            "byteLength" : 6216,
            "byteOffset" : 115676
        },
        {
            "buffer" : 0,
            "byteLength" : 4144,
            "byteOffset" : 121892
        },
        {
            "buffer" : 0,
            "byteLength" : 5520,
            "byteOffset" : 126036
        },
        {
            "buffer" : 0,
            "byteLength" : 6216,
            "byteOffset" : 131556
        },
        {
            "buffer" : 0,
            "byteLength" : 6216,
            "byteOffset" : 137772
        },
        {
            "buffer" : 0,
            "byteLength" : 4144,
            "byteOffset" : 143988
        },
        {
            "buffer" : 0,
            "byteLength" : 5520,
            "byteOffset" : 148132
        },
        {
            "buffer" : 0,
            "byteLength" : 17484,
            "byteOffset" : 153652
        },
        {
            "buffer" : 0,
            "byteLength" : 17484,
            "byteOffset" : 171136
        },
        {
            "buffer" : 0,
            "byteLength" : 11656,
            "byteOffset" : 188620
        },
        {
            "buffer" : 0,
            "byteLength" : 15120,
            "byteOffset" : 200276
        },
        {
            "buffer" : 0,
            "byteLength" : 8832,
            "byteOffset" : 215396
        },
        {
            "buffer" : 0,
            "byteLength" : 8832,
            "byteOffset" : 224228
        },
        {
            "buffer" : 0,
            "byteLength" : 5888,
            "byteOffset" : 233060
        },
        {
            "buffer" : 0,
            "byteLength" : 7392,
            "byteOffset" : 238948
        },
        {
            "buffer" : 0,
            "byteLength" : 17484,
            "byteOffset" : 246340
        },
        {
            "buffer" : 0,
            "byteLength" : 17484,
            "byteOffset" : 263824
        },
        {
            "buffer" : 0,
            "byteLength" : 11656,
            "byteOffset" : 281308
        },
        {
            "buffer" : 0,
            "byteLength" : 15120,
            "byteOffset" : 292964
        }
    ],
    "buffers" : [
        {
            "byteLength" : 308084,
            "uri" : "data:application/octet-stream;base64,"
        }
    ]
}
